# Blender v2.70 (sub 0) OBJ File: 'meander_startup.blend'
# www.blender.org
o Cube_Cube.005
v 50.000000 0.000000 50.000000
v 50.000000 0.000000 -50.000000
v -50.000000 0.000000 -50.000000
v -50.000000 0.000000 50.000000
v 50.000000 -50.000000 50.000000
v 50.000000 -50.000000 -50.000000
v -50.000000 -50.000000 -50.000000
v -50.000000 -50.000000 50.000000
v 0.000008 -80.000000 -50.000000
v 0.000019 -80.000000 50.000000
v 50.000000 0.000000 5.000000
v 45.000000 0.000000 5.000000
v 50.000000 0.000000 -5.000000
v 45.000000 0.000000 -5.000000
v 50.000000 -50.000000 5.000000
v 45.000000 -45.000000 5.000000
v 50.000000 -50.000000 -5.000000
v 45.000000 -45.000000 -5.000000
v 0.000000 -80.000000 5.000000
v 0.000000 -72.000000 5.000000
v 0.000000 -80.000000 -5.000000
v 0.000000 -72.000000 -5.000000
v -0.166664 -72.000000 -5.000000
v -0.166664 -80.000000 -5.000000
v -0.166664 -72.000000 5.000000
v -0.166664 -80.000000 5.000000
v -45.166664 -45.000000 -5.000000
v -50.166664 -50.000000 -5.000000
v -45.166664 -45.000000 5.000000
v -50.166664 -50.000000 5.000000
v -45.166664 0.000000 -5.000000
v -50.166664 0.000000 -5.000000
v -45.166664 0.000000 5.000000
v -50.166664 0.000000 5.000000
vt 1.000000 0.000000
vt 1.000000 1.000000
vt 0.000000 1.000000
vt 0.206107 0.095492
vt 0.024472 0.654509
vt 0.793893 0.095491
vt 0.000000 0.000000
vt 0.500000 1.000000
vt 0.975528 0.654508
vn -1.000000 0.000000 0.000000
vn 0.000000 0.000000 1.000000
vn 1.000000 0.000000 0.000000
vn 0.000000 0.000000 -1.000000
vn 0.000000 -1.000000 0.000000
vn -0.514496 0.857493 0.000000
vn 0.514496 0.857493 -0.000000
s off
f 1/1/1 2/2/1 6/3/1
f 7/4/2 9/5/2 3/6/2
f 3/1/3 4/2/3 8/3/3
f 5/4/4 10/5/4 1/6/4
f 4/1/5 3/2/5 2/3/5
f 10/7/6 5/1/6 6/2/6
f 10/1/7 9/2/7 7/3/7
f 18/7/4 17/1/4 21/2/4
f 14/7/4 13/1/4 17/2/4
f 14/1/1 18/2/1 16/3/1
f 12/1/2 16/2/2 15/3/2
f 16/7/6 18/1/6 22/2/6
f 16/1/2 20/2/2 19/3/2
f 26/1/2 25/2/2 29/3/2
f 25/1/7 23/2/7 27/3/7
f 30/1/2 29/2/2 33/3/2
f 29/1/3 27/2/3 31/3/3
f 31/7/4 27/1/4 28/2/4
f 27/7/4 23/1/4 24/2/4
f 5/7/1 1/1/1 6/3/1
f 9/5/2 6/8/2 2/9/2
f 7/7/3 3/1/3 8/3/3
f 10/5/4 8/8/4 4/9/4
f 9/5/2 2/9/2 3/6/2
f 1/7/5 4/1/5 2/3/5
f 9/3/6 10/7/6 6/2/6
f 10/5/4 4/9/4 1/6/4
f 8/7/7 10/1/7 7/3/7
f 22/3/4 18/7/4 21/2/4
f 18/3/4 14/7/4 17/2/4
f 12/7/1 14/1/1 16/3/1
f 11/7/2 12/1/2 15/3/2
f 20/3/6 16/7/6 22/2/6
f 15/7/2 16/1/2 19/3/2
f 30/7/2 26/1/2 29/3/2
f 29/7/7 25/1/7 27/3/7
f 34/7/2 30/1/2 33/3/2
f 33/7/3 29/1/3 31/3/3
f 32/3/4 31/7/4 28/2/4
f 28/3/4 27/7/4 24/2/4
