# Blender v2.70 (sub 0) OBJ File: 'church.blend'
# www.blender.org
o Cube
v -70.000000 30.000000 20.000000
v -70.000000 30.000000 50.000000
v -50.000000 30.000000 50.000000
v -50.000000 30.000000 20.000000
v -70.000000 -70.000000 20.000000
v -70.000000 -70.000000 50.000000
v -50.000000 -70.000000 50.000000
v -50.000000 -80.000000 20.000000
v 0.000000 30.000000 50.000000
v 0.000000 30.000000 20.000000
v 0.000000 -70.000000 50.000000
v 0.000000 -70.000000 20.000000
v -50.000000 30.000000 -20.000000
v -50.000000 -80.000000 -20.000000
v 0.000000 30.000000 -20.000000
v 0.000000 -70.000000 -20.000000
v -50.000000 30.000000 -50.000000
v -50.000000 -70.000000 -50.000000
v 0.000000 30.000000 -50.000000
v 0.000000 -70.000000 -50.000000
v -70.000000 30.000000 -20.000000
v -70.000000 -70.000000 -20.000000
v -70.000000 30.000000 -50.000000
v -70.000000 -70.000000 -50.000000
v -10.000000 -80.000000 20.000000
v -10.000000 -80.000000 -20.000000
v -50.000000 -90.000000 20.000000
v -50.000000 -90.000000 -20.000000
v -10.000000 -90.000000 20.000000
v -10.000000 -90.000000 -20.000000
v -41.446449 -100.000000 11.446448
v -41.446449 -100.000000 -11.446449
v -18.553551 -100.000000 -11.446449
v -18.553551 -100.000000 11.446448
v -41.446449 -140.000000 11.446448
v -41.446449 -140.000000 -11.446449
v -18.553551 -140.000000 -11.446449
v -18.553551 -140.000000 11.446448
v -41.446449 -150.000000 -0.000001
v -18.553551 -150.000000 0.000000
v -50.000000 -13.392677 20.000000
v -50.000000 -13.392677 -20.000000
v -70.000000 -57.245262 20.000000
v -50.000000 -57.245262 20.000000
v -50.000000 -57.245262 -20.000000
v -70.000000 -57.245262 -20.000000
vt 0.496269 0.319729
vt 0.496269 0.365942
vt 0.384328 0.365942
vt 0.570896 0.771739
vt 0.570895 0.409420
vt 0.645522 0.409420
vt 0.152985 0.527506
vt 0.152985 0.843612
vt 0.003731 0.843612
vt 0.115672 0.259128
vt 0.115672 0.520259
vt 0.003731 0.520259
vt 0.902004 0.301822
vt 0.776133 0.350863
vt 0.804152 0.228261
vt 0.003731 0.259129
vt 0.115672 0.207899
vt 0.384328 0.771739
vt 0.384328 0.409420
vt 0.264925 0.207898
vt 0.376866 0.259128
vt 0.264925 0.259128
vt 0.996269 0.867719
vt 0.921642 0.867719
vt 0.921642 0.551613
vt 0.264925 0.520259
vt 0.727612 0.409420
vt 0.914179 0.409420
vt 0.914179 0.771739
vt 0.376866 0.520259
vt 0.496269 0.003623
vt 0.727612 0.771739
vt 0.652985 0.771739
vt 0.652985 0.409420
vt 0.996269 0.228261
vt 0.996269 0.544367
vt 0.921642 0.544367
vt 0.764925 0.904570
vt 0.764925 0.954803
vt 0.652985 0.930683
vt 0.496269 0.402174
vt 0.879589 0.399903
vt 0.764925 0.399903
vt 0.645522 0.365942
vt 0.757463 0.365942
vt 0.645522 0.402174
vt 0.652985 0.830215
vt 0.764925 0.778985
vt 0.764925 0.221014
vt 0.764925 0.184783
vt 0.914179 0.184783
vt 0.796842 0.148551
vt 0.796842 0.003623
vt 0.882263 0.003623
vt 0.384328 0.996377
vt 0.384328 0.960145
vt 0.533582 0.960145
vt 0.115672 0.181785
vt 0.264925 0.181785
vt 0.376866 0.744897
vt 0.376866 0.781129
vt 0.227612 0.781129
vt 0.344949 0.708665
vt 0.227612 0.744897
vt 0.233009 0.134189
vt 0.501666 0.923913
vt 0.882263 0.148551
vt 0.160448 0.610451
vt 0.160448 0.527506
vt 0.197761 0.527506
vt 0.416245 0.923913
vt 0.416245 0.778985
vt 0.501666 0.778985
vt 0.190298 0.003623
vt 0.233009 0.029736
vt 0.147588 0.029736
vt 0.302239 0.527506
vt 0.344949 0.563738
vt 0.259528 0.563738
vt 0.160448 0.700643
vt 0.160448 0.617697
vt 0.197761 0.617697
vt 0.570895 0.778985
vt 0.645522 0.778985
vt 0.645522 0.923913
vt 0.645522 0.319729
vt 0.645522 0.003623
vt 0.645522 0.771739
vt 0.003731 0.527506
vt 0.996269 0.551613
vt 0.384328 0.003623
vt 0.921642 0.228261
vt 0.914179 0.221014
vt 0.533582 0.996377
vt 0.259528 0.708665
vt 0.147588 0.134189
vt 0.197761 0.610451
vt 0.197761 0.700643
vt 0.570896 0.923913
vt 0.757463 0.003623
vn -1.000000 0.000000 0.000000
vn 0.000000 0.000000 1.000000
vn 1.000000 0.000000 0.000000
vn 0.000000 -0.948683 -0.316228
vn 0.707107 -0.707107 0.000000
vn 0.000000 0.000000 -1.000000
vn 0.000000 -0.948683 0.316228
vn -0.447214 -0.894427 0.000000
vn -0.759927 -0.650008 0.000000
vn 0.759928 -0.650008 0.000000
vn 0.000000 -0.650008 -0.759928
vn 0.000000 -0.650008 0.759927
vn 0.000000 -0.753087 -0.657921
vn -0.000000 -0.753086 0.657922
vn 0.000000 1.000000 0.000000
vn -0.759928 -0.650008 0.000000
vn 0.759927 -0.650008 0.000000
vn 0.000000 -0.650007 -0.759928
vn 0.000000 -0.650008 0.759928
vn 0.000000 -0.753086 -0.657922
vn 0.000000 -0.753087 0.657921
s off
f 43/1/1 5/2/1 6/3/1
f 7/4/2 3/5/2 2/6/2
f 13/7/1 45/8/1 44/9/1
f 12/10/3 10/11/3 9/12/3
f 26/13/4 18/14/4 20/15/4
f 12/10/5 11/16/5 25/17/5
f 7/4/2 11/18/2 9/19/2
f 26/20/5 20/21/5 16/22/5
f 44/23/6 43/24/6 1/25/6
f 12/10/3 16/22/3 15/26/3
f 17/27/6 19/28/6 20/29/6
f 16/22/3 20/21/3 19/30/3
f 1/31/1 43/1/1 6/3/1
f 18/32/6 24/33/6 23/34/6
f 21/35/2 46/36/2 45/37/2
f 7/38/7 6/39/7 8/40/7
f 5/2/8 8/41/8 6/3/8
f 18/14/4 14/42/4 24/43/4
f 22/44/8 24/45/8 14/46/8
f 12/10/5 25/17/5 26/20/5
f 18/14/4 26/13/4 14/42/4
f 25/47/7 11/48/7 7/38/7
f 7/38/7 8/40/7 25/47/7
f 8/49/2 27/50/2 29/51/2
f 31/52/2 35/53/2 38/54/2
f 26/55/6 30/56/6 28/57/6
f 25/17/3 29/58/3 30/59/3
f 27/60/1 8/61/1 14/62/1
f 31/63/9 27/60/9 28/64/9
f 33/65/10 30/59/10 29/58/10
f 32/66/11 28/57/11 30/56/11
f 34/67/12 29/51/12 27/50/12
f 36/68/13 37/69/13 40/70/13
f 33/71/6 37/72/6 36/73/6
f 40/74/3 37/75/3 38/76/3
f 39/77/1 35/78/1 36/79/1
f 39/80/14 40/81/14 38/82/14
f 43/83/15 44/84/15 45/85/15
f 24/45/1 46/86/1 21/87/1
f 24/45/1 22/44/1 46/86/1
f 46/86/1 22/44/1 5/2/1
f 22/44/8 14/46/8 8/41/8
f 6/88/2 7/4/2 2/6/2
f 4/89/1 13/7/1 44/9/1
f 11/16/3 12/10/3 9/12/3
f 3/5/2 7/4/2 9/19/2
f 4/90/6 44/23/6 1/25/6
f 10/11/3 12/10/3 15/26/3
f 18/32/6 17/27/6 20/29/6
f 15/26/3 16/22/3 19/30/3
f 2/91/1 1/31/1 6/3/1
f 17/27/6 18/32/6 23/34/6
f 13/92/2 21/35/2 45/37/2
f 16/22/5 12/10/5 26/20/5
f 25/93/2 8/49/2 29/51/2
f 34/67/2 31/52/2 38/54/2
f 14/94/6 26/55/6 28/57/6
f 26/20/3 25/17/3 30/59/3
f 28/64/1 27/60/1 14/62/1
f 32/95/16 31/63/16 28/64/16
f 34/96/17 33/65/17 29/58/17
f 33/71/18 32/66/18 30/56/18
f 31/52/19 34/67/19 27/50/19
f 39/97/20 36/68/20 40/70/20
f 32/66/6 33/71/6 36/73/6
f 37/75/3 33/65/3 34/96/3
f 35/78/1 31/63/1 32/95/1
f 35/98/21 39/80/21 38/82/21
f 37/75/3 34/96/3 38/76/3
f 46/99/15 43/83/15 45/85/15
f 35/78/1 32/95/1 36/79/1
f 23/100/1 24/45/1 21/87/1
f 43/1/1 46/86/1 5/2/1
f 5/2/8 22/44/8 8/41/8
l 41 4
l 14 45
l 41 8
l 42 14
l 8 44
