# Blender v2.70 (sub 0) OBJ File: 'mill.blend'
# www.blender.org
o Cube
v -1.500000 6.000000 -3.000000
v -1.500000 6.000000 3.000000
v 4.500000 6.000000 3.000000
v 4.499999 6.000000 -3.000001
v -1.500001 -7.500000 -2.999999
v -1.499999 -7.500000 3.000001
v 4.500001 -7.500000 3.000000
v 4.500000 -7.500000 -3.000000
v -4.500000 6.000000 -3.000000
v -4.500000 6.000000 3.000000
v -4.500001 -5.257120 -2.999999
v -4.499999 -5.257120 3.000001
v -1.500001 -13.500000 -2.999999
v -1.499999 -13.500000 3.000001
v 4.500001 -13.500000 3.000000
v 4.500000 -13.500000 -3.000000
v -1.499999 -9.000000 6.000001
v 4.500001 -9.000000 5.999999
v -1.499999 -13.500000 6.000001
v 4.500001 -13.500000 5.999999
v 4.500001 -5.816052 3.000000
v -1.499998 -13.500000 6.134520
v 4.500001 -13.500000 6.134518
v -1.499998 -4.577838 6.134520
v 4.500001 -4.577838 6.134518
v -1.500001 -9.000000 -4.905122
v 4.500000 -9.000000 -4.905123
v -1.500001 -13.500000 -4.905122
v 4.500000 -13.500000 -4.905123
v 5.933763 -13.500000 2.999999
v 5.933762 -13.500000 -3.000000
v 5.933763 -9.000000 2.999999
v 5.933762 -9.000000 -3.000000
v 4.519936 -13.448493 -5.085324
v -1.480063 -13.448493 -5.085331
v 4.519936 -4.526330 -5.085324
v -1.480063 -4.526330 -5.085331
v 6.101116 -13.448493 -3.147123
v 6.101116 -4.526330 -3.147123
vt 0.805318 0.693665
vt 0.637427 0.693665
vt 0.637427 0.378669
vt 0.681253 0.317292
vt 0.681253 0.250573
vt 0.807172 0.250573
vt 0.910740 0.862166
vt 0.805927 0.862166
vt 0.805927 0.694274
vt 0.596698 0.378060
vt 0.428807 0.378060
vt 0.428807 0.330940
vt 0.168196 0.734629
vt 0.168196 0.781749
vt 0.000305 0.781749
vt 0.185373 0.017464
vt 0.353265 0.017483
vt 0.353222 0.395239
vt 0.596698 0.000305
vt 0.680644 0.000305
vt 0.185331 0.395220
vt 0.101392 0.332450
vt 0.101428 0.017454
vt 0.428807 0.431978
vt 0.596698 0.431978
vt 0.596698 0.599870
vt 0.415617 0.684425
vt 0.415617 0.852316
vt 0.331671 0.852316
vt 0.583509 0.684425
vt 0.636818 0.726398
vt 0.636818 0.852316
vt 0.583509 0.852316
vt 0.596698 0.683816
vt 0.428807 0.683816
vt 0.805318 0.694274
vt 0.805318 0.788128
vt 0.637427 0.788128
vt 0.805318 0.914047
vt 0.637427 0.914047
vt 0.681253 0.249964
vt 0.681253 0.000305
vt 0.849144 0.000305
vt 0.873777 0.378669
vt 0.999695 0.378669
vt 0.999695 0.546561
vt 0.428807 0.378669
vt 0.596698 0.378670
vt 0.805927 0.378669
vt 0.873777 0.546561
vt 0.576130 0.910988
vt 0.576130 0.852925
vt 0.636818 0.880647
vt 0.636817 0.431978
vt 0.168805 0.822153
vt 0.294724 0.822153
vt 0.294724 0.915193
vt 0.168805 0.654262
vt 0.408239 0.910988
vt 0.408239 0.852925
vt 0.319424 0.880647
vt 0.636817 0.599870
vt 0.168805 0.653652
vt 0.168805 0.403993
vt 0.336697 0.403993
vt 0.406689 0.403993
vt 0.406689 0.653652
vt 0.805318 0.378669
vt 0.807172 0.317292
vt 0.910740 0.694274
vt 0.000305 0.403993
vt 0.168196 0.403993
vt 0.428807 0.000305
vt 0.680644 0.315300
vt 0.428807 0.599870
vt 0.331671 0.726398
vt 0.637427 0.694274
vt 0.849144 0.249964
vt 0.805927 0.546561
vt 0.168805 0.915193
vt 0.294724 0.654262
vt 0.336697 0.653652
vn -1.000000 -0.000000 0.000000
vn 0.799008 0.000000 -0.601320
vn -0.598783 -0.800911 0.000000
vn 0.000000 0.000000 1.000000
vn 1.000000 0.000000 -0.000000
vn -0.000000 -0.000000 -1.000000
vn 0.000000 -1.000000 0.000000
vn 0.000000 0.894427 0.447214
vn -0.000000 0.785693 -0.618616
vn 0.634999 0.606958 -0.477889
vn 0.902254 0.000000 0.431206
vn 0.722887 0.690966 -0.000000
vn 0.683260 0.653088 0.326544
vn 0.000000 -1.000000 -0.000001
vn 0.000001 0.000000 -1.000000
vn 0.774862 0.000000 -0.632131
vn -0.598783 -0.800912 0.000000
vn -0.000000 0.785694 -0.618616
vn 0.774862 0.000000 -0.632130
s off
f 11/1/1 12/2/1 10/3/1
f 27/4/2 33/5/2 31/6/2
f 6/7/3 12/8/3 11/9/3
f 6/10/4 7/11/4 21/12/4
f 21/13/5 7/14/5 8/15/5
f 1/16/6 4/17/6 8/18/6
f 6/10/4 2/19/4 10/20/4
f 5/21/6 11/22/6 9/23/6
f 13/24/7 16/25/7 15/26/7
f 6/27/1 14/28/1 19/29/1
f 5/30/1 26/31/1 28/32/1
f 5/30/1 13/33/1 14/28/1
f 15/26/7 20/34/7 19/35/7
f 6/36/8 17/37/8 18/38/8
f 17/37/4 19/39/4 20/40/4
f 23/41/4 25/42/4 24/43/4
f 27/44/6 29/45/6 28/46/6
f 13/24/7 28/47/7 29/48/7
f 8/49/9 27/44/9 26/50/9
f 8/51/10 33/52/10 27/53/10
f 15/26/7 16/25/7 31/54/7
f 30/55/11 32/56/11 18/57/11
f 32/56/5 30/55/5 31/58/5
f 7/59/12 32/60/12 33/52/12
f 18/61/13 32/60/13 7/59/13
f 15/26/7 30/62/7 20/34/7
f 31/54/14 16/25/14 29/48/14
f 35/63/15 37/64/15 36/65/15
f 36/65/16 39/66/16 38/67/16
f 9/68/1 11/1/1 10/3/1
f 29/69/2 27/4/2 31/6/2
f 5/70/17 6/7/17 11/9/17
f 6/10/4 21/12/4 2/19/4
f 4/71/5 3/72/5 21/13/5
f 5/21/6 1/16/6 8/18/6
f 21/12/4 3/73/4 2/19/4
f 21/13/5 8/15/5 4/71/5
f 12/74/4 6/10/4 10/20/4
f 1/16/6 5/21/6 9/23/6
f 14/75/7 13/24/7 15/26/7
f 17/76/1 6/27/1 19/29/1
f 13/33/1 5/30/1 28/32/1
f 6/27/1 5/30/1 14/28/1
f 14/75/7 15/26/7 19/35/7
f 7/77/8 6/36/8 18/38/8
f 18/38/4 17/37/4 20/40/4
f 22/78/4 23/41/4 24/43/4
f 26/50/6 27/44/6 28/46/6
f 16/25/14 13/24/14 29/48/14
f 5/79/18 8/49/18 26/50/18
f 30/62/7 15/26/7 31/54/7
f 20/80/11 30/55/11 18/57/11
f 33/81/5 32/56/5 31/58/5
f 8/51/12 7/59/12 33/52/12
f 34/82/15 35/63/15 36/65/15
f 34/82/19 36/65/19 38/67/19
