# Blender v2.70 (sub 0) OBJ File: 'meander_startup.blend'
# www.blender.org
o Cube_Cube.002
v 1.918323 9.932149 -4.096464
v 1.918323 9.932149 4.096463
v -1.918321 9.932149 4.096462
v -1.918319 9.932149 -4.096465
v 4.682876 -0.812920 -9.999994
v 4.682870 -0.812920 10.000006
v -4.682872 -0.812920 9.999996
v -4.682870 -0.812920 -10.000000
v 3.200672 -22.676947 -6.834839
v 3.200668 -22.676947 6.834848
v -3.200670 -22.676947 6.834841
v -3.200668 -22.676947 -6.834843
v 2.223768 -24.859541 -4.748719
v 2.223766 -24.859541 4.748727
v -2.223766 -24.859541 4.748722
v -2.223765 -24.859541 -4.748722
vt 0.908325 0.819512
vt 0.768134 0.819512
vt 0.768134 0.753862
vt 0.682234 0.859013
vt 0.262689 0.853101
vt 0.175022 0.179150
vt 0.355419 -0.153707
vt 0.606873 -0.150163
vt 0.783263 0.192915
vt 0.018382 -0.173383
vt -0.106932 0.235233
vt 0.612464 -0.155278
vt 0.788855 0.187799
vt -0.112524 0.240345
vt -0.102709 -0.145295
vt 0.012792 -0.168269
vt 0.617173 0.931502
vt 0.325681 0.927395
vt 0.069977 0.891433
vt 0.257096 0.858215
vt 0.064383 0.896546
vt 0.676641 0.864128
vt 0.169431 0.184264
vt 0.766374 0.561862
vt 0.842477 0.561862
vt 0.842477 0.724375
vt 0.251359 0.949844
vt 0.117466 0.976476
vt 0.245765 0.954958
vt 0.111872 0.981590
vt 0.611580 0.936617
vt 0.320088 0.932509
vt 0.908325 0.753862
vt -0.097120 -0.150409
vt 0.361009 -0.158821
vt 0.766374 0.724375
vn 0.000000 1.000000 0.000000
vn -0.997710 -0.067637 -0.000000
vn 0.968460 0.249170 0.000000
vn -0.000001 0.481527 0.876431
vn -0.968460 0.249171 -0.000000
vn 0.000000 0.481527 -0.876431
vn -0.912744 -0.408533 0.000000
vn -0.000001 -0.143272 0.989683
vn 0.000001 -0.143272 -0.989683
vn 0.997710 -0.067637 0.000000
vn 0.000000 -1.000000 0.000000
vn -0.000001 -0.690950 0.722902
vn 0.000000 -0.690951 -0.722902
vn 0.912743 -0.408533 0.000000
vn 0.968460 0.249171 0.000000
vn 0.000000 0.481528 0.876431
vn 0.000001 0.481527 -0.876431
vn -0.000001 -0.690949 0.722903
vn 0.000001 -0.690949 -0.722903
s off
f 4/1/1 3/2/1 2/3/1
f 12/4/2 11/5/2 7/6/2
f 1/7/3 2/8/3 6/9/3
f 3/10/4 7/6/4 6/11/4
f 4/12/5 8/13/5 7/6/5
f 8/14/6 4/15/6 1/16/6
f 16/17/7 15/18/7 11/5/7
f 11/5/8 10/19/8 6/11/8
f 9/20/9 12/21/9 8/14/9
f 10/22/10 9/20/10 5/23/10
f 14/24/11 15/25/11 16/26/11
f 15/27/12 14/28/12 10/19/12
f 13/29/13 16/30/13 12/21/13
f 14/31/14 13/32/14 9/20/14
f 1/33/1 4/1/1 2/3/1
f 8/13/2 12/4/2 7/6/2
f 5/23/15 1/7/15 6/9/15
f 2/34/16 3/10/16 6/11/16
f 3/35/5 4/12/5 7/6/5
f 5/23/17 8/14/17 1/16/17
f 12/4/7 16/17/7 11/5/7
f 7/6/8 11/5/8 6/11/8
f 5/23/9 9/20/9 8/14/9
f 6/9/10 10/22/10 5/23/10
f 13/36/11 14/24/11 16/26/11
f 11/5/18 15/27/18 10/19/18
f 9/20/19 13/29/19 12/21/19
f 10/22/14 14/31/14 9/20/14
